<svg xmlns="http://www.w3.org/2000/svg" viewBox="0 0 24 24" height="24" preserveAspectRatio="xMidYMid meet" class="" fill="none"><title>experiment</title><path d="M4.3001 21C3.6001 21 3.10427 20.675 2.8126 20.025C2.52093 19.375 2.61677 18.7833 3.1001 18.25L9.3001 11.25V4.5H8.0001C7.78343 4.5 7.60427 4.42917 7.4626 4.2875C7.32093 4.14583 7.2501 3.96667 7.2501 3.75C7.2501 3.53333 7.32093 3.35417 7.4626 3.2125C7.60427 3.07083 7.78343 3 8.0001 3H16.0001C16.2168 3 16.3959 3.07083 16.5376 3.2125C16.6793 3.35417 16.7501 3.53333 16.7501 3.75C16.7501 3.96667 16.6793 4.14583 16.5376 4.2875C16.3959 4.42917 16.2168 4.5 16.0001 4.5H14.7001V11.25L20.9001 18.25C21.3834 18.7833 21.4793 19.375 21.1876 20.025C20.8959 20.675 20.4001 21 19.7001 21H4.3001Z" fill="#3b4a54"/></svg>